<?xml version="1.0" encoding="UTF-8" standalone="no"?>
<svg width="20px" height="20px" viewBox="0 0 20 20" version="1.1" xmlns="http://www.w3.org/2000/svg" xmlns:xlink="http://www.w3.org/1999/xlink" xmlns:sketch="http://www.bohemiancoding.com/sketch/ns">
    <!-- Generator: Sketch 3.1 (8751) - http://www.bohemiancoding.com/sketch -->
    <title>Imported Layers</title>
    <desc>Created with Sketch.</desc>
    <defs></defs>
    <g id="Page-2---My-parties" stroke="none" stroke-width="1" fill="none" fill-rule="evenodd" sketch:type="MSPage">
        <g id="Desktop-HD" sketch:type="MSArtboardGroup" transform="translate(-908.000000, -253.000000)" fill="#4A4A4A">
            <path d="M918,253.952381 C913.003333,253.952381 908.952381,258.003333 908.952381,263 C908.952381,265.564762 910.02381,267.874286 911.738095,269.520476 C911.92,269.251905 912.114286,268.982857 912.285714,268.714286 C912.285714,268.714286 913.080952,267.408095 916.095238,267.285714 C916.402381,267.285714 916.555714,267.084762 916.555714,266.778095 L916.55619,266.778095 C916.555714,266.53 916.555714,266.333333 916.555714,266.333333 C916.555714,266.271429 916.545714,266.215714 916.542857,266.155714 C916.198095,265.992857 915.798095,265.768095 915.33381,265.444286 C915.33381,265.444286 914.190952,264.741429 914.190952,263.952381 C914.190952,263.952381 913.714762,261.51619 913.714762,260.619048 C913.714762,258.407619 914.660476,256.333333 918.000476,256.333333 C921.295714,256.333333 922.28619,258.407619 922.28619,260.619048 C922.28619,261.494286 921.81,263.952381 921.81,263.952381 C921.81,264.719524 920.667619,265.444286 920.667619,265.444286 C920.212381,265.787619 919.809524,266.016667 919.456667,266.180952 C919.45381,266.232381 919.445238,266.280476 919.445238,266.333333 C919.445238,266.333333 919.444762,266.53 919.444762,266.778095 L919.445238,266.778095 C919.444286,267.084762 919.597619,267.285714 919.904762,267.285714 C922.96381,267.422857 923.714286,268.714286 923.714286,268.714286 C923.885238,268.982857 924.08,269.251905 924.260952,269.520476 C925.975714,267.874286 927.047619,265.564762 927.047619,263 C927.047619,258.003333 922.996667,253.952381 918,253.952381 M923.539524,270.142857 C923.465238,270.033333 923.37,269.89619 923.294762,269.789524 C923.162857,269.601905 923.030476,269.414286 922.912381,269.228571 C922.907143,269.220476 922.255238,268.345238 919.904762,268.238095 C919.087143,268.238095 918.492857,267.624762 918.491429,266.778095 L918.47619,266.333333 C918.47619,266.269048 918.468571,266.40381 918.47619,266.333333 L918.47619,265.857143 L918.952381,265.380952 C919.3,265.219524 919.742857,264.948095 920.092857,264.68381 L920.156667,264.639524 C920.43381,264.46381 920.820476,264.09381 920.857143,263.952381 L920.874286,263.770952 C921.051905,262.855238 921.333333,261.189524 921.333333,260.619048 C921.333333,258.37619 920.242857,257.285714 918,257.285714 C915.72619,257.285714 914.666667,258.344762 914.666667,260.619048 C914.666667,261.204762 914.948095,262.862381 915.125238,263.769524 L915.141905,263.937143 C915.171905,264.08619 915.522381,264.438571 915.831905,264.633333 L915.878571,264.662857 C916.25381,264.925238 916.702381,265.217619 917.047619,265.380952 L917.52381,265.857143 L917.52381,266.333333 C917.530476,266.399524 917.52381,266.26381 917.52381,266.333333 L917.508095,266.778095 C917.508095,267.623333 916.914762,268.237143 916.135238,268.237143 L916.13381,268.237143 C913.77381,268.332857 913.089524,269.22619 913.088571,269.22619 C912.968571,269.414762 912.837143,269.601905 912.704286,269.79 C912.629524,269.89619 912.535238,270.033333 912.46,270.142857 C913.991905,271.332381 915.91,272.047619 917.999524,272.047619 C920.089048,272.047619 922.007619,271.332381 923.539524,270.142857 M918,273 C912.477143,273 908,268.522857 908,263 C908,257.477143 912.477143,253 918,253 C923.522857,253 928,257.477143 928,263 C928,268.522857 923.522857,273 918,273" id="Imported-Layers" sketch:type="MSShapeGroup"></path>
        </g>
    </g>
</svg>