<?xml version="1.0" encoding="UTF-8" standalone="no"?>
<svg width="24px" height="17px" viewBox="0 0 24 17" version="1.1" xmlns="http://www.w3.org/2000/svg" xmlns:xlink="http://www.w3.org/1999/xlink" xmlns:sketch="http://www.bohemiancoding.com/sketch/ns">
    <!-- Generator: Sketch 3.1 (8751) - http://www.bohemiancoding.com/sketch -->
    <title>Imported Layers 2</title>
    <desc>Created with Sketch.</desc>
    <defs></defs>
    <g id="Page-2---My-parties" stroke="none" stroke-width="1" fill="none" fill-rule="evenodd" sketch:type="MSPage">
        <g id="Desktop-HD" sketch:type="MSArtboardGroup" transform="translate(-663.000000, -254.000000)" fill="#4A4A4A">
            <g id="Group" sketch:type="MSLayerGroup" transform="translate(293.000000, 212.000000)">
                <g id="Imported-Layers-2" transform="translate(370.000000, 42.000000)" sketch:type="MSShapeGroup">
                    <path d="M2.5,6 C2.224,6 2,6.2245 2,6.5 L2,15.5 C2,15.7755 2.224,16 2.5,16 L16.5,16 C16.776,16 17,15.7755 17,15.5 L17,6.5 C17,6.2245 16.776,6 16.5,6 L2.5,6 Z M16.5,17 L2.5,17 C1.673,17 1,16.327 1,15.5 L1,6.5 C1,5.673 1.673,5 2.5,5 L16.5,5 C17.327,5 18,5.673 18,6.5 L18,15.5 C18,16.327 17.327,17 16.5,17 L16.5,17 Z" id="Fill-1"></path>
                    <path d="M6,10.5 C5.4485,10.5 5,10.948 5,11.5 C5,12.052 5.4485,12.5 6,12.5 C6.5515,12.5 7,12.052 7,11.5 C7,10.948 6.5515,10.5 6,10.5 M6,13.5 C4.897,13.5 4,12.603 4,11.5 C4,10.397 4.897,9.5 6,9.5 C7.103,9.5 8,10.397 8,11.5 C8,12.603 7.103,13.5 6,13.5" id="Fill-3"></path>
                    <path d="M13,10.5 C12.448,10.5 12,10.948 12,11.5 C12,12.052 12.448,12.5 13,12.5 C13.552,12.5 14,12.052 14,11.5 C14,10.948 13.552,10.5 13,10.5 M13,13.5 C11.897,13.5 11,12.603 11,11.5 C11,10.397 11.897,9.5 13,9.5 C14.103,9.5 15,10.397 15,11.5 C15,12.603 14.103,13.5 13,13.5" id="Fill-5"></path>
                    <path d="M13,10.5 L6,10.5 C5.7235,10.5 5.5,10.276 5.5,10 C5.5,9.724 5.7235,9.5 6,9.5 L13,9.5 C13.2765,9.5 13.5,9.724 13.5,10 C13.5,10.276 13.2765,10.5 13,10.5" id="Fill-7"></path>
                    <path d="M11.5,6 C11.2235,6 11,5.776 11,5.5 L11,3.5 C11,3.2245 10.776,3 10.5,3 L0.5,3 C0.2235,3 0,2.776 0,2.5 C0,2.224 0.2235,2 0.5,2 L10.5,2 C11.327,2 12,2.673 12,3.5 L12,5.5 C12,5.776 11.7765,6 11.5,6" id="Fill-9"></path>
                    <path d="M15.5,6 C15.2235,6 15,5.776 15,5.5 L15,2.5 C15,1.673 15.673,1 16.5,1 L18.5,1 C18.7765,1 19,1.224 19,1.5 C19,1.776 18.7765,2 18.5,2 L16.5,2 C16.224,2 16,2.2245 16,2.5 L16,5.5 C16,5.776 15.7765,6 15.5,6" id="Fill-11"></path>
                    <path d="M19.5,1 C19.224,1 19,1.2245 19,1.5 C19,1.7755 19.224,2 19.5,2 L22.5,2 C22.776,2 23,1.7755 23,1.5 C23,1.2245 22.776,1 22.5,1 L19.5,1 Z M22.5,3 L19.5,3 C18.673,3 18,2.327 18,1.5 C18,0.673 18.673,0 19.5,0 L22.5,0 C23.327,0 24,0.673 24,1.5 C24,2.327 23.327,3 22.5,3 L22.5,3 Z" id="Fill-13"></path>
                    <path d="M22.96145,15.73095 C22.82595,15.73095 22.69095,15.70445 22.56245,15.65095 L17.30745,13.46145 C17.05295,13.35545 16.93145,13.06245 17.03845,12.80745 C17.14495,12.55295 17.43895,12.43245 17.69245,12.53845 L22.94745,14.72795 L22.99995,14.69245 L22.99995,8.30745 L22.75445,7.81045 L22.94745,8.27195 L17.69245,10.46145 C17.43845,10.56845 17.14495,10.44745 17.03845,10.19245 C16.93145,9.93745 17.05295,9.64495 17.30745,9.53845 L22.56195,7.34895 C22.88295,7.21445 23.24795,7.24995 23.53745,7.44345 C23.82695,7.63695 23.99995,7.95995 23.99995,8.30745 L23.99995,14.69245 C23.99995,15.03995 23.82695,15.36345 23.53795,15.55645 C23.36445,15.67195 23.16345,15.73095 22.96145,15.73095" id="Fill-15"></path>
                </g>
            </g>
        </g>
    </g>
</svg>